<?xml version="1.0" encoding="UTF-8"?><svg id="Layer_1" xmlns="http://www.w3.org/2000/svg" viewBox="0 0 500 500"><defs><style>.cls-1,.cls-2,.cls-3{stroke-width:0px;}.cls-2{fill:#241816;}.cls-3{fill:#e7d8b4;}</style></defs><path class="cls-3" d="m250,499c-66.51,0-129.04-25.9-176.07-72.93C26.9,379.04,1,316.51,1,250S26.9,120.96,73.93,73.93C120.96,26.9,183.49,1,250,1s129.04,25.9,176.07,72.93c47.03,47.03,72.93,109.56,72.93,176.07s-25.9,129.04-72.93,176.07-109.56,72.93-176.07,72.93Z"/><path class="cls-2" d="m250,2c33.48,0,65.96,6.56,96.53,19.49,29.53,12.49,56.05,30.37,78.83,53.15,22.78,22.78,40.66,49.3,53.15,78.83,12.93,30.57,19.49,63.05,19.49,96.53s-6.56,65.96-19.49,96.53c-12.49,29.53-30.37,56.05-53.15,78.83-22.78,22.78-49.3,40.66-78.83,53.15-30.57,12.93-63.05,19.49-96.53,19.49s-65.96-6.56-96.53-19.49c-29.53-12.49-56.05-30.37-78.83-53.15-22.78-22.78-40.66-49.3-53.15-78.83-12.93-30.57-19.49-63.05-19.49-96.53s6.56-65.96,19.49-96.53c12.49-29.53,30.37-56.05,53.15-78.83s49.3-40.66,78.83-53.15c30.57-12.93,63.05-19.49,96.53-19.49Zm0-2C111.93,0,0,111.93,0,250s111.93,250,250,250,250-111.93,250-250S388.07,0,250,0Z"/><path class="cls-1" d="m300.37,239.05h-37.23c-1.21,0-2.19-.98-2.19-2.19v-37.23c0-6.05-4.9-10.95-10.95-10.95s-10.95,4.9-10.95,10.95v37.23c0,1.21-.98,2.19-2.19,2.19h-37.23c-6.05,0-10.95,4.9-10.95,10.95s4.9,10.95,10.95,10.95h37.23c1.21,0,2.19.98,2.19,2.19v37.23c0,6.05,4.9,10.95,10.95,10.95s10.95-4.9,10.95-10.95v-37.23c0-1.21.98-2.19,2.19-2.19h37.23c6.05,0,10.95-4.9,10.95-10.95s-4.9-10.95-10.95-10.95Z"/></svg>